# xmcd
#
# Track frame offsets:
# 150
# 14980
# 28226
# 41809
# 57035
# 73384
# 85812
# 101415
# 116229
# 128195
# 138217
# 152684
# 166677
# 182623
# 196724
# 211720
# 227323
# 239723
# 252994
# 267302
#
# Disc length: 3729 seconds
#
#
# Revision: 0
# Processed by: cddbd v1.5.1PL2 Copyright (c) Steve Scherf et al.
# Submitted via: FreeRIP 2.945 
#
DISCID=180e8f14
DTITLE=Tião Carreiro and Pardinho - Edição Especial
DYEAR=1900
DGENRE=Sertanejo
TTITLE0=O Mundo No Avesso
TTITLE1=O Pulo Do Gato
TTITLE2=Vacilou Virou Petisco
TTITLE3=Cochilou, O Cachimbo Caí
TTITLE4=O Rio De Piracicaba
TTITLE5=Preto Inocente
TTITLE6=Saudades
TTITLE7=Lá Onde Eu Moro
TTITLE8=Três Namoradas
TTITLE9=Cabelo Preto
TTITLE10=Azulão Do Reino Encantado
TTITLE11=Ferreirinha
TTITLE12=Florzinha Do Campo
TTITLE13=Herói Sem Medalha
TTITLE14=João Bobo
TTITLE15=Boiada Cuiabana
TTITLE16=Terra Roxa
TTITLE17=Travessia Do Araguaia
TTITLE18=Rei Do Gado
TTITLE19=A Casa
EXTD=
EXTT0=
EXTT1=
EXTT2=
EXTT3=
EXTT4=
EXTT5=
EXTT6=
EXTT7=
EXTT8=
EXTT9=
EXTT10=
EXTT11=
EXTT12=
EXTT13=
EXTT14=
EXTT15=
EXTT16=
EXTT17=
EXTT18=
EXTT19=
PLAYORDER=
